<?xml version="1.0" encoding="UTF-8"?>
<svg width="32px" height="32px" viewBox="0 0 32 32" version="1.1" xmlns="http://www.w3.org/2000/svg" xmlns:xlink="http://www.w3.org/1999/xlink">
    <!-- Generator: Sketch 61.2 (89653) - https://sketch.com -->
    <title>icon_QR code_png</title>
    <desc>Created with Sketch.</desc>
    <g id="页面-1" stroke="none" stroke-width="1" fill="none" fill-rule="evenodd">
        <g id="PC端跳转页-定稿" transform="translate(-455.000000, -260.000000)">
            <g id="编组-8" transform="translate(317.000000, 252.000000)">
                <g id="1">
                    <g id="icon_QR-code_png" transform="translate(138.000000, 8.000000)">
                        <g id="路径-2">
                            <g id="蒙版" fill="#000000" fill-rule="nonzero">
                                <path d="M0,30.5464286 C0,31.35 0.65,32 1.45357143,32 L11.6357143,32 L11.6357143,20.3642857 L0,20.3642857 L0,30.5464286 L0,30.5464286 Z M4.39285714,24.7214286 L7.30357143,24.7214286 L7.30357143,27.6321429 L4.39285714,27.6321429 L4.39285714,24.7214286 Z M14.5464286,26.1821429 L17.4571429,26.1821429 L17.4571429,32 L14.5464286,32 L14.5464286,26.1821429 Z M0,14.5464286 L5.81785714,14.5464286 L5.81785714,17.4571429 L0,17.4571429 L0,14.5464286 Z M14.5464286,14.5464286 L8.72857143,14.5464286 L8.72857143,17.4535714 L14.5464286,17.4535714 L14.5464286,23.2714286 L17.4535714,23.2714286 L17.4535714,8.72857143 L14.5464286,8.72857143 L14.5464286,14.5464286 Z M20.3642857,20.3642857 L26.1821429,20.3642857 L26.1821429,26.1821429 L20.3642857,26.1821429 L20.3642857,20.3642857 Z M11.6357143,0 L1.45357143,0 C0.65,0 0,0.65 0,1.45357143 L0,11.6357143 L11.6357143,11.6357143 L11.6357143,0 Z M7.30357143,7.26785714 L4.39285714,7.26785714 L4.39285714,4.35714286 L7.30357143,4.35714286 L7.30357143,7.26785714 Z M30.5464286,0 L20.3642857,0 L20.3642857,11.6357143 L32,11.6357143 L32,1.45357143 C32,0.65 31.35,0 30.5464286,0 Z M27.6642857,7.26785714 L24.7535714,7.26785714 L24.7535714,4.35714286 L27.6642857,4.35714286 L27.6642857,7.26785714 Z M14.5464286,0 L17.4571429,0 L17.4571429,5.81785714 L14.5464286,5.81785714 L14.5464286,0 Z M23.2714286,14.5464286 L32,14.5464286 L32,17.4571429 L23.2714286,17.4571429 L23.2714286,14.5464286 Z" id="形状"></path>
                                <path d="M28.9981584,28.9981584 L20,28.9981584 L20,32 L30.5009208,32 C31.3296501,32 32,31.3296501 32,30.5009208 L32,20 L28.9981584,20 L28.9981584,28.9981584 L28.9981584,28.9981584 Z" id="路径"></path>
                            </g>
                            <polygon fill="#FFFFFF" points="0 4.35714286 0 33 27.6357143 33"></polygon>
                        </g>
                    </g>
                </g>
            </g>
        </g>
    </g>
</svg>