<?xml version="1.0" encoding="UTF-8"?>
<svg width="40px" height="40px" viewBox="0 0 40 40" version="1.1" xmlns="http://www.w3.org/2000/svg" xmlns:xlink="http://www.w3.org/1999/xlink">
    <!-- Generator: Sketch 61.2 (89653) - https://sketch.com -->
    <title>icon_def_png</title>
    <desc>Created with Sketch.</desc>
    <g id="页面-1" stroke="none" stroke-width="1" fill="none" fill-rule="evenodd">
        <g id="跳转页" transform="translate(-100.000000, -538.000000)" fill-rule="nonzero">
            <g id="编组-2" transform="translate(60.000000, 388.000000)">
                <g id="1" transform="translate(40.000000, 50.000000)">
                    <g id="icon_def_png" transform="translate(0.000000, 100.000000)">
                        <g id="头像备份">
                            <path d="M0,20.0000233 C0,31.0400361 8.96001043,40.0000465 20.0000233,40.0000465 C31.0400361,40.0000465 40.0000465,31.0400361 40.0000465,20.0000233 C40.0000465,8.96001043 31.0400361,0 20.0000233,0 C8.96001043,0 0,8.96001043 0,20.0000233 Z" id="路径" fill="#5E81F4"></path>
                            <path d="M26.0600303,16.2400189 C29.8000347,11.160013 29.0800338,19.6000228 25.6000298,19.9400232 C20.1000234,21.7400253 26.0600303,16.2400189 26.0600303,16.2400189 Z" id="路径" fill="#EFE7E6"></path>
                            <path d="M15.1400176,20.1000234 C15.3000178,20.7200241 16.5200192,23.3000271 13.8000161,27.3000318 C11.0800129,31.3000364 20.0800234,33.480039 20.0800234,33.480039 C20.0800234,33.480039 28.6400333,30.5800356 29.1000339,29.180034 C31.9200371,26.7800312 23.8400277,29.220034 25.3800295,20.3600237 C21.6800252,18.020021 15.1400176,20.1000234 15.1400176,20.1000234 L15.1400176,20.1000234 Z" id="路径" fill="#FFFFFF"></path>
                            <path d="M20.0000233,40.0000465 C27.2800317,40.0000465 33.6600392,36.100042 37.1600432,30.3000353 L37.1600432,30.2800352 C36.1600421,28.7400334 29.220034,26.4200307 26.5000308,26.4200307 C21.1000246,35.8400417 13.8200161,28.0400326 13.9600162,26.5000308 C10.2000119,26.2400305 5.66000659,28.9600337 3.14000365,30.7400358 C6.66000775,36.3000422 12.900015,40.0000465 20.0000233,40.0000465 Z" id="路径" fill="#333333"></path>
                            <path d="M15.3400179,21.6400252 C15.5600181,22.4200261 21.3000248,27.8000323 26.5000308,26.4800308 C24.9800291,24.6000286 25.5200297,21.6800252 25.6200298,19.9400232 C26.1600304,18.7600218 15.500018,20.600024 15.3400179,21.6400252 Z" id="路径" fill="#E3DCDB"></path>
                            <path d="M20.7200241,6.58000766 C22.8600266,6.98000812 25.8600301,7.18000835 26.2400305,10.1600118 C30.4200354,27.6000321 11.7400137,30.0200349 14.1400165,11.7400137 C15.3600179,5.26000612 20.7200241,6.58000766 20.7200241,6.58000766 Z" id="路径" fill="#FFFFFF"></path>
                            <path d="M16.2200189,8.9400104 C17.3800202,9.72001131 19.7200229,12.3200143 25.3800295,11.0400128 C25.8600301,12.920015 25.6200298,12.920015 26.9400313,14.9200174 C27.9000325,15.2400177 30.6800357,5.80000675 22.5400262,4.52000526 C13.0000151,3.06000356 11.7800137,11.4400133 14.2200165,14.4800168 C14.8200172,13.8400161 14.3600167,10.4200121 16.2200189,8.9400104 L16.2200189,8.9400104 Z" id="路径" fill="#333333"></path>
                        </g>
                    </g>
                </g>
            </g>
        </g>
    </g>
</svg>